
<svg width="1440px" height="1024px" viewBox="0 0 1440 1024" version="1.1" xmlns="http://www.w3.org/2000/svg" xmlns:xlink="http://www.w3.org/1999/xlink">
    <g id="Main" stroke="none" stroke-width="1" fill="none" fill-rule="evenodd" fill-opacity="0.019804">
        <g id="Desktop-HD" fill="#CFCFCF" fill-rule="nonzero">
            <g id="board-background">
                <path d="M208.894737,862.052632 C211.326464,850.139648 222.383836,842.003144 234.480905,843.225196 C246.577973,844.447248 255.78464,854.630836 255.78464,866.789474 C255.78464,878.948112 246.577973,889.131699 234.480905,890.353751 C222.383836,891.575803 211.326464,883.439299 208.894737,871.526316 L0,871.526316 L0,862.052632 L208.894737,862.052632 Z M966.789474,1089.42105 C969.221201,1077.50807 980.278573,1069.37157 992.375641,1070.59362 C1004.47271,1071.81567 1013.67938,1081.99926 1013.67938,1094.15789 C1013.67938,1106.31653 1004.47271,1116.50012 992.375641,1117.72217 C980.278573,1118.94422 969.221201,1110.80772 966.789474,1098.89474 L388.421053,1098.89474 L388.421053,1089.42105 L966.789474,1089.42105 Z M1240.57895,871.526316 C1238.14722,883.439299 1227.08985,891.575803 1214.99278,890.353751 C1202.89571,889.131699 1193.68904,878.948112 1193.68904,866.789474 C1193.68904,854.630836 1202.89571,844.447248 1214.99278,843.225196 C1227.08985,842.003144 1238.14722,850.139648 1240.57895,862.052632 L1440,862.052632 L1440,871.526316 L1240.57895,871.526316 L1240.57895,871.526316 Z M1240.57895,947.315789 C1238.14722,959.228773 1227.08985,967.365277 1214.99278,966.143225 C1202.89571,964.921173 1193.68904,954.737585 1193.68904,942.578947 C1193.68904,930.420309 1202.89571,920.236722 1214.99278,919.01467 C1227.08985,917.792618 1238.14722,925.929122 1240.57895,937.842105 L1440,937.842105 L1440,947.315789 L1240.57895,947.315789 Z M1269.94737,407.315789 C1272.3791,395.402806 1283.43647,387.266302 1295.53354,388.488354 C1307.6306,389.710406 1316.83727,399.893994 1316.83727,412.052632 C1316.83727,424.21127 1307.6306,434.394857 1295.53354,435.616909 C1283.43647,436.838961 1272.3791,428.702457 1269.94737,416.789474 L861.631579,416.789474 C859.199851,428.702457 848.14248,436.838961 836.045411,435.616909 C823.948343,434.394857 814.741676,424.21127 814.741676,412.052632 C814.741676,399.893994 823.948343,389.710406 836.045411,388.488354 C848.14248,387.266302 859.199851,395.402806 861.631579,407.315789 L1269.94737,407.315789 Z M57.3157895,179.947368 C59.7475171,168.034385 70.8048886,159.897881 82.9019572,161.119933 C94.9990258,162.341985 104.205692,172.525572 104.205692,184.684211 C104.205692,196.842849 94.9990258,207.026436 82.9019572,208.248488 C70.8048886,209.47054 59.7475171,201.334036 57.3157895,189.421053 L0,189.421053 L0,179.947368 L57.3157895,179.947368 L57.3157895,179.947368 Z M937.421053,341 C934.989325,352.912984 923.931953,361.049487 911.834885,359.827435 C899.737816,358.605383 890.53115,348.421796 890.53115,336.263158 C890.53115,324.10452 899.737816,313.920933 911.834885,312.698881 C923.931953,311.476828 934.989325,319.613332 937.421053,331.526316 L1345.73684,331.526316 C1348.16857,319.613332 1359.22594,311.476828 1371.32301,312.698881 C1383.42008,313.920933 1392.62674,324.10452 1392.62674,336.263158 C1392.62674,348.421796 1383.42008,358.605383 1371.32301,359.827435 C1359.22594,361.049487 1348.16857,352.912984 1345.73684,341 L937.421053,341 L937.421053,341 Z M1222.10526,-141.684211 C1234.01825,-139.252483 1242.15475,-128.195111 1240.9327,-116.098043 C1239.71065,-104.000974 1229.52706,-94.7943077 1217.36842,-94.7943077 C1205.20978,-94.7943077 1195.0262,-104.000974 1193.80414,-116.098043 C1192.58209,-128.195111 1200.7186,-139.252483 1212.63158,-141.684211 L1212.63158,-199 L1222.10526,-199 L1222.10526,-141.684211 Z M918.947368,843.578947 C930.860352,846.010675 938.996856,857.068047 937.774804,869.165115 C936.552752,881.262184 926.369164,890.46885 914.210526,890.46885 C902.051888,890.46885 891.868301,881.262184 890.646249,869.165115 C889.424197,857.068047 897.560701,846.010675 909.473684,843.578947 L909.473684,586.842105 C897.560701,584.410378 889.424197,573.353006 890.646249,561.255938 C891.868301,549.158869 902.051888,539.952202 914.210526,539.952202 C926.369164,539.952202 936.552752,549.158869 937.774804,561.255938 C938.996856,573.353006 930.860352,584.410378 918.947368,586.842105 L918.947368,843.578947 L918.947368,843.578947 Z M1146.31579,-95.2631579 L1146.31579,179.947368 L1440,179.947368 L1440,189.421053 L1136.84211,189.421053 L1136.84211,-95.2631579 C1124.92912,-97.6948855 1116.79262,-108.752257 1118.01467,-120.849326 C1119.23672,-132.946394 1129.42031,-142.153061 1141.57895,-142.153061 C1153.73759,-142.153061 1163.92117,-132.946394 1165.14322,-120.849326 C1166.36528,-108.752257 1158.22877,-97.6948855 1146.31579,-95.2631579 L1146.31579,-95.2631579 Z M1222.10526,-19.4736842 L1222.10526,104.157895 L1440,104.157895 L1440,113.631579 L1212.63158,113.631579 L1212.63158,-19.4736842 C1200.7186,-21.9054118 1192.58209,-32.9627834 1193.80414,-45.0598519 C1195.0262,-57.1569205 1205.20978,-66.363587 1217.36842,-66.363587 C1229.52706,-66.363587 1239.71065,-57.1569205 1240.9327,-45.0598519 C1242.15475,-32.9627834 1234.01825,-21.9054118 1222.10526,-19.4736842 Z M615.789474,435.263158 L615.789474,786.263158 L691.578947,786.263158 L691.578947,843.578947 C703.491931,846.010675 711.628435,857.068047 710.406383,869.165115 C709.18433,881.262184 699.000743,890.46885 686.842105,890.46885 C674.683467,890.46885 664.49988,881.262184 663.277828,869.165115 C662.055776,857.068047 670.192279,846.010675 682.105263,843.578947 L682.105263,795.736842 L606.315789,795.736842 L606.315789,435.263158 C594.402806,432.83143 586.266302,421.774059 587.488354,409.67699 C588.710406,397.579922 598.893994,388.373255 611.052632,388.373255 C623.21127,388.373255 633.394857,397.579922 634.616909,409.67699 C635.838961,421.774059 627.702457,432.83143 615.789474,435.263158 Z M587.842105,331.526316 C590.273833,319.613332 601.331204,311.476828 613.428273,312.698881 C625.525342,313.920933 634.732008,324.10452 634.732008,336.263158 C634.732008,348.421796 625.525342,358.605383 613.428273,359.827435 C601.331204,361.049487 590.273833,352.912984 587.842105,341 L540,341 L540,568.368421 L406.894737,568.368421 C404.463009,580.281405 393.405638,588.417908 381.308569,587.195856 C369.211501,585.973804 360.004834,575.790217 360.004834,563.631579 C360.004834,551.472941 369.211501,541.289354 381.308569,540.067302 C393.405638,538.84525 404.463009,546.981753 406.894737,558.894737 L530.526316,558.894737 L530.526316,331.526316 L587.842105,331.526316 Z M558.473684,947.315789 C556.041957,959.228773 544.984585,967.365277 532.887516,966.143225 C520.790448,964.921173 511.583781,954.737585 511.583781,942.578947 C511.583781,930.420309 520.790448,920.236722 532.887516,919.01467 C544.984585,917.792618 556.041957,925.929122 558.473684,937.842105 L833.684211,937.842105 L833.684211,586.842105 C821.771227,584.410378 813.634723,573.353006 814.856775,561.255938 C816.078827,549.158869 826.262415,539.952202 838.421053,539.952202 C850.579691,539.952202 860.763278,549.158869 861.98533,561.255938 C863.207382,573.353006 855.070878,584.410378 843.157895,586.842105 L843.157895,947.315789 L558.473684,947.315789 Z M482.684211,644.157895 C480.252483,656.070878 469.195111,664.207382 457.098043,662.98533 C445.000974,661.763278 435.794308,651.579691 435.794308,639.421053 C435.794308,627.262415 445.000974,617.078827 457.098043,615.856775 C469.195111,614.634723 480.252483,622.771227 482.684211,634.684211 L540,634.684211 L540,862.052632 L587.842105,862.052632 C590.273833,850.139648 601.331204,842.003144 613.428273,843.225196 C625.525342,844.447248 634.732008,854.630836 634.732008,866.789474 C634.732008,878.948112 625.525342,889.131699 613.428273,890.353751 C601.331204,891.575803 590.273833,883.439299 587.842105,871.526316 L530.526316,871.526316 L530.526316,644.157895 L482.684211,644.157895 L482.684211,644.157895 Z M312.631579,1146.73684 C324.544563,1149.16857 332.681066,1160.22594 331.459014,1172.32301 C330.236962,1184.42008 320.053375,1193.62674 307.894737,1193.62674 C295.736099,1193.62674 285.552512,1184.42008 284.33046,1172.32301 C283.108407,1160.22594 291.244911,1149.16857 303.157895,1146.73684 L303.157895,1098.89474 L236.842105,1098.89474 L236.842105,1241 L227.368421,1241 L227.368421,1089.42105 L312.631579,1089.42105 L312.631579,1146.73684 Z M1118.36842,634.684211 C1120.80015,622.771227 1131.85752,614.634723 1143.95459,615.856775 C1156.05166,617.078827 1165.25832,627.262415 1165.25832,639.421053 C1165.25832,651.579691 1156.05166,661.763278 1143.95459,662.98533 C1131.85752,664.207382 1120.80015,656.070878 1118.36842,644.157895 L1070.52632,644.157895 L1070.52632,1089.42105 L1297.89474,1089.42105 L1297.89474,1241 L1288.42105,1241 L1288.42105,1098.89474 L1061.05263,1098.89474 L1061.05263,634.684211 L1118.36842,634.684211 Z M1240.57895,492.578947 C1238.14722,504.491931 1227.08985,512.628435 1214.99278,511.406383 C1202.89571,510.18433 1193.68904,500.000743 1193.68904,487.842105 C1193.68904,475.683467 1202.89571,465.49988 1214.99278,464.277828 C1227.08985,463.055776 1238.14722,471.192279 1240.57895,483.105263 L1297.89474,483.105263 L1297.89474,692 C1309.80772,694.431728 1317.94422,705.489099 1316.72217,717.586168 C1315.50012,729.683236 1305.31653,738.889903 1293.15789,738.889903 C1280.99926,738.889903 1270.81567,729.683236 1269.59362,717.586168 C1268.37157,705.489099 1276.50807,694.431728 1288.42105,692 L1288.42105,492.578947 L1240.57895,492.578947 Z M937.421053,947.315789 C934.989325,959.228773 923.931953,967.365277 911.834885,966.143225 C899.737816,964.921173 890.53115,954.737585 890.53115,942.578947 C890.53115,930.420309 899.737816,920.236722 911.834885,919.01467 C923.931953,917.792618 934.989325,925.929122 937.421053,937.842105 L985.263158,937.842105 L985.263158,558.894737 L1061.05263,558.894737 L1061.05263,492.578947 L861.631579,492.578947 C859.199851,504.491931 848.14248,512.628435 836.045411,511.406383 C823.948343,510.18433 814.741676,500.000743 814.741676,487.842105 C814.741676,475.683467 823.948343,465.49988 836.045411,464.277828 C848.14248,463.055776 859.199851,471.192279 861.631579,483.105263 L1070.52632,483.105263 L1070.52632,568.368421 L994.736842,568.368421 L994.736842,947.315789 L937.421053,947.315789 L937.421053,947.315789 Z M1345.73684,-47.4210526 C1348.16857,-59.3340363 1359.22594,-67.4705399 1371.32301,-66.2484878 C1383.42008,-65.0264357 1392.62674,-54.8428486 1392.62674,-42.6842105 C1392.62674,-30.5255725 1383.42008,-20.3419853 1371.32301,-19.1199332 C1359.22594,-17.8978811 1348.16857,-26.0343847 1345.73684,-37.9473684 L1288.42105,-37.9473684 L1288.42105,-199 L1297.89474,-199 L1297.89474,-47.4210526 L1345.73684,-47.4210526 L1345.73684,-47.4210526 Z M464.210526,283.684211 L464.210526,492.578947 L255.315789,492.578947 C252.884062,504.491931 241.82669,512.628435 229.729622,511.406383 C217.632553,510.18433 208.425887,500.000743 208.425887,487.842105 C208.425887,475.683467 217.632553,465.49988 229.729622,464.277828 C241.82669,463.055776 252.884062,471.192279 255.315789,483.105263 L454.736842,483.105263 L454.736842,283.684211 C442.823858,281.252483 434.687355,270.195111 435.909407,258.098043 C437.131459,246.000974 447.315046,236.794308 459.473684,236.794308 C471.632322,236.794308 481.815909,246.000974 483.037962,258.098043 C484.260014,270.195111 476.12351,281.252483 464.210526,283.684211 Z M255.315789,-37.9473684 C252.884062,-26.0343847 241.82669,-17.8978811 229.729622,-19.1199332 C217.632553,-20.3419853 208.425887,-30.5255725 208.425887,-42.6842105 C208.425887,-54.8428486 217.632553,-65.0264357 229.729622,-66.2484878 C241.82669,-67.4705399 252.884062,-59.3340363 255.315789,-47.4210526 L378.947368,-47.4210526 L378.947368,-199 L388.421053,-199 L388.421053,-37.9473684 L255.315789,-37.9473684 Z M540,-19.4736842 L540,113.631579 L388.421053,113.631579 L388.421053,416.789474 L331.105263,416.789474 C328.673536,428.702457 317.616164,436.838961 305.519095,435.616909 C293.422027,434.394857 284.21536,424.21127 284.21536,412.052632 C284.21536,399.893994 293.422027,389.710406 305.519095,388.488354 C317.616164,387.266302 328.673536,395.402806 331.105263,407.315789 L378.947368,407.315789 L378.947368,104.157895 L530.526316,104.157895 L530.526316,-19.4736842 C518.613332,-21.9054118 510.476828,-32.9627834 511.698881,-45.0598519 C512.920933,-57.1569205 523.10452,-66.363587 535.263158,-66.363587 C547.421796,-66.363587 557.605383,-57.1569205 558.827435,-45.0598519 C560.049487,-32.9627834 551.912984,-21.9054118 540,-19.4736842 Z M482.684211,189.421053 C480.252483,201.334036 469.195111,209.47054 457.098043,208.248488 C445.000974,207.026436 435.794308,196.842849 435.794308,184.684211 C435.794308,172.525572 445.000974,162.341985 457.098043,161.119933 C469.195111,159.897881 480.252483,168.034385 482.684211,179.947368 L606.315789,179.947368 L606.315789,-19.4736842 C594.402806,-21.9054118 586.266302,-32.9627834 587.488354,-45.0598519 C588.710406,-57.1569205 598.893994,-66.363587 611.052632,-66.363587 C623.21127,-66.363587 633.394857,-57.1569205 634.616909,-45.0598519 C635.838961,-32.9627834 627.702457,-21.9054118 615.789474,-19.4736842 L615.789474,189.421053 L482.684211,189.421053 Z M558.473684,-113.736842 C556.041957,-101.823858 544.984585,-93.6873548 532.887516,-94.9094069 C520.790448,-96.131459 511.583781,-106.315046 511.583781,-118.473684 C511.583781,-130.632322 520.790448,-140.815909 532.887516,-142.037962 C544.984585,-143.260014 556.041957,-135.12351 558.473684,-123.210526 L691.578947,-123.210526 L691.578947,85.6842105 C703.491931,88.1159381 711.628435,99.1733097 710.406383,111.270378 C709.18433,123.367447 699.000743,132.574113 686.842105,132.574113 C674.683467,132.574113 664.49988,123.367447 663.277828,111.270378 C662.055776,99.1733097 670.192279,88.1159381 682.105263,85.6842105 L682.105263,-113.736842 L558.473684,-113.736842 Z M1042.57895,1165.21053 C1045.01067,1153.29754 1056.06805,1145.16104 1068.16512,1146.38309 C1080.26218,1147.60514 1089.46885,1157.78873 1089.46885,1169.94737 C1089.46885,1182.10601 1080.26218,1192.28959 1068.16512,1193.51165 C1056.06805,1194.7337 1045.01067,1186.59719 1042.57895,1174.68421 L464.210526,1174.68421 L464.210526,1241 L454.736842,1241 L454.736842,1165.21053 L1042.57895,1165.21053 L1042.57895,1165.21053 Z M1146.31579,511.052632 L1146.31579,558.894737 L1222.10526,558.894737 L1222.10526,719.947368 L1146.31579,719.947368 L1146.31579,1013.63158 L1373.68421,1013.63158 L1373.68421,1241 L1364.21053,1241 L1364.21053,1023.10526 L1136.84211,1023.10526 L1136.84211,710.473684 L1212.63158,710.473684 L1212.63158,568.368421 L1136.84211,568.368421 L1136.84211,511.052632 C1124.92912,508.620904 1116.79262,497.563532 1118.01467,485.466464 C1119.23672,473.369395 1129.42031,464.162729 1141.57895,464.162729 C1153.73759,464.162729 1163.92117,473.369395 1165.14322,485.466464 C1166.36528,497.563532 1158.22877,508.620904 1146.31579,511.052632 L1146.31579,511.052632 Z M255.315789,-113.736842 C252.884062,-101.823858 241.82669,-93.6873548 229.729622,-94.9094069 C217.632553,-96.131459 208.425887,-106.315046 208.425887,-118.473684 C208.425887,-130.632322 217.632553,-140.815909 229.729622,-142.037962 C241.82669,-143.260014 252.884062,-135.12351 255.315789,-123.210526 L303.157895,-123.210526 L303.157895,-189.526316 L227.368421,-189.526316 L227.368421,-199 L312.631579,-199 L312.631579,-113.736842 L255.315789,-113.736842 Z M785.842105,37.8421053 C783.410378,49.7550889 772.353006,57.8915926 760.255938,56.6695405 C748.158869,55.4474884 738.952202,45.2639012 738.952202,33.1052632 C738.952202,20.9466251 748.158869,10.7630379 760.255938,9.54098585 C772.353006,8.31893376 783.410378,16.4554374 785.842105,28.3684211 L909.473684,28.3684211 L909.473684,-199 L1146.31579,-199 L1146.31579,-189.526316 L918.947368,-189.526316 L918.947368,37.8421053 L785.842105,37.8421053 Z M558.473684,-189.526316 C556.781374,-181.233993 550.793713,-174.474409 542.766195,-171.793831 C534.738678,-169.113254 525.890876,-170.918928 519.555669,-176.530674 C513.220463,-182.142419 510.360321,-190.707678 512.052632,-199 L521.857895,-199 C519.786963,-193.113008 521.799188,-186.563792 526.81833,-182.855201 C531.837473,-179.14661 538.688843,-179.14661 543.707986,-182.855201 C548.727128,-186.563792 550.739353,-193.113008 548.668421,-199 L843.157895,-199 L843.157895,-37.9473684 L757.894737,-37.9473684 L757.894737,-95.2631579 C745.981753,-97.6948855 737.84525,-108.752257 739.067302,-120.849326 C740.289354,-132.946394 750.472941,-142.153061 762.631579,-142.153061 C774.790217,-142.153061 784.973804,-132.946394 786.195856,-120.849326 C787.417908,-108.752257 779.281405,-97.6948855 767.368421,-95.2631579 L767.368421,-47.4210526 L833.684211,-47.4210526 L833.684211,-189.526316 L558.473684,-189.526316 Z M558.473684,265.210526 C556.041957,277.12351 544.984585,285.260014 532.887516,284.037962 C520.790448,282.815909 511.583781,272.632322 511.583781,260.473684 C511.583781,248.315046 520.790448,238.131459 532.887516,236.909407 C544.984585,235.687355 556.041957,243.823858 558.473684,255.736842 L648.947368,255.736842 L800.526316,104.157895 L985.263158,104.157895 L985.263158,-95.2631579 C973.350174,-97.6948855 965.213671,-108.752257 966.435723,-120.849326 C967.657775,-132.946394 977.841362,-142.153061 990,-142.153061 C1002.15864,-142.153061 1012.34223,-132.946394 1013.56428,-120.849326 C1014.78633,-108.752257 1006.64983,-97.6948855 994.736842,-95.2631579 L994.736842,113.631579 L804.457895,113.631579 L652.878947,265.210526 L558.473684,265.210526 Z M691.578947,692 C703.491931,694.431728 711.628435,705.489099 710.406383,717.586168 C709.18433,729.683236 699.000743,738.889903 686.842105,738.889903 C674.683467,738.889903 664.49988,729.683236 663.277828,717.586168 C662.055776,705.489099 670.192279,694.431728 682.105263,692 L682.105263,329.584211 L831.742105,179.947368 L1061.05263,179.947368 L1061.05263,-95.2631579 C1049.13965,-97.6948855 1041.00314,-108.752257 1042.2252,-120.849326 C1043.44725,-132.946394 1053.63084,-142.153061 1065.78947,-142.153061 C1077.94811,-142.153061 1088.1317,-132.946394 1089.35375,-120.849326 C1090.5758,-108.752257 1082.4393,-97.6948855 1070.52632,-95.2631579 L1070.52632,189.421053 L835.626316,189.421053 L691.578947,333.468421 L691.578947,692 Z M767.368421,843.578947 C779.281405,846.010675 787.417908,857.068047 786.195856,869.165115 C784.973804,881.262184 774.790217,890.46885 762.631579,890.46885 C750.472941,890.46885 740.289354,881.262184 739.067302,869.165115 C737.84525,857.068047 745.981753,846.010675 757.894737,843.578947 L757.894737,372.215789 L874.373684,255.736842 L1421.52632,255.736842 C1423.42392,246.432317 1430.69547,239.160759 1440,237.263158 L1440,247.068421 C1434.31132,249.06959 1430.50519,254.443282 1430.50519,260.473684 C1430.50519,266.504086 1434.31132,271.877779 1440,273.878947 L1440,283.684211 C1430.69547,281.786609 1423.42392,274.515052 1421.52632,265.210526 L878.257895,265.210526 L767.368421,376.1 L767.368421,843.578947 Z M85.2631579,540.421053 C97.1761416,542.85278 105.312645,553.910152 104.090593,566.00722 C102.868541,578.104289 92.6849538,587.310955 80.5263158,587.310955 C68.3676777,587.310955 58.1840906,578.104289 56.9620385,566.00722 C55.7399864,553.910152 63.87649,542.85278 75.7894737,540.421053 L75.7894737,523.794737 L303.157895,296.426316 L303.157895,28.3684211 L454.736842,28.3684211 L454.736842,-199 L464.210526,-199 L464.210526,37.8421053 L312.631579,37.8421053 L312.631579,300.310526 L85.2631579,527.678947 L85.2631579,540.421053 Z M236.842105,56.3157895 L236.842105,262.415789 L9.47368421,489.784211 L9.47368421,786.263158 L133.105263,786.263158 C135.536991,774.350174 146.594362,766.213671 158.691431,767.435723 C170.788499,768.657775 179.995166,778.841362 179.995166,791 C179.995166,803.158638 170.788499,813.342225 158.691431,814.564277 C146.594362,815.786329 135.536991,807.649826 133.105263,795.736842 L0,795.736842 L0,485.9 L227.368421,258.531579 L227.368421,56.3157895 C215.455437,53.8840619 207.318934,42.8266903 208.540986,30.7296218 C209.763038,18.6325532 219.946625,9.42588665 232.105263,9.42588665 C244.263901,9.42588665 254.447488,18.6325532 255.66954,30.7296218 C256.891593,42.8266903 248.755089,53.8840619 236.842105,56.3157895 Z M161.052632,132.105263 L161.052632,224.521053 L0,385.573684 L0,372.215789 L151.578947,220.636842 L151.578947,132.105263 C139.665964,129.673536 131.52946,118.616164 132.751512,106.519095 C133.973564,94.4220269 144.157151,85.2153603 156.315789,85.2153603 C168.474428,85.2153603 178.658015,94.4220269 179.880067,106.519095 C181.102119,118.616164 172.965615,129.673536 161.052632,132.105263 Z M57.3157895,-47.4210526 C59.7475171,-59.3340363 70.8048886,-67.4705399 82.9019572,-66.2484878 C94.9990258,-65.0264357 104.205692,-54.8428486 104.205692,-42.6842105 C104.205692,-30.5255725 94.9990258,-20.3419853 82.9019572,-19.1199332 C70.8048886,-17.8978811 59.7475171,-26.0343847 57.3157895,-37.9473684 L44.5736842,-37.9473684 L0,6.62631579 L0,-6.68421053 L40.6894737,-47.4210526 L57.3157895,-47.4210526 Z M1316.36842,37.8421053 C1313.93669,49.7550889 1302.87932,57.8915926 1290.78225,56.6695405 C1278.68518,55.4474884 1269.47852,45.2639012 1269.47852,33.1052632 C1269.47852,20.9466251 1278.68518,10.7630379 1290.78225,9.54098585 C1302.87932,8.31893376 1313.93669,16.4554374 1316.36842,28.3684211 L1404.9,28.3684211 L1440,-6.73157895 L1440,6.62631579 L1408.78421,37.8421053 L1316.36842,37.8421053 L1316.36842,37.8421053 Z M1240.57895,795.736842 C1238.14722,807.649826 1227.08985,815.786329 1214.99278,814.564277 C1202.89571,813.342225 1193.68904,803.158638 1193.68904,791 C1193.68904,778.841362 1202.89571,768.657775 1214.99278,767.435723 C1227.08985,766.213671 1238.14722,774.350174 1240.57895,786.263158 L1364.21053,786.263158 L1364.21053,448.005263 L1440,372.215789 L1440,385.573684 L1373.68421,451.889474 L1373.68421,795.736842 L1240.57895,795.736842 L1240.57895,795.736842 Z M255.315789,947.315789 C252.884062,959.228773 241.82669,967.365277 229.729622,966.143225 C217.632553,964.921173 208.425887,954.737585 208.425887,942.578947 C208.425887,930.420309 217.632553,920.236722 229.729622,919.01467 C241.82669,917.792618 252.884062,925.929122 255.315789,937.842105 L303.157895,937.842105 L303.157895,830.836842 L192.268421,719.947368 L103.736842,719.947368 C101.305114,731.860352 90.247743,739.996856 78.1506744,738.774804 C66.0536058,737.552752 56.8469393,727.369164 56.8469393,715.210526 C56.8469393,703.051888 66.0536058,692.868301 78.1506744,691.646249 C90.247743,690.424197 101.305114,698.560701 103.736842,710.473684 L196.152632,710.473684 L312.631579,826.952632 L312.631579,947.315789 L255.315789,947.315789 L255.315789,947.315789 Z M966.789474,1013.63158 C969.221201,1001.7186 980.278573,993.582092 992.375641,994.804144 C1004.47271,996.026196 1013.67938,1006.20978 1013.67938,1018.36842 C1013.67938,1030.52706 1004.47271,1040.71065 992.375641,1041.9327 C980.278573,1043.15475 969.221201,1035.01825 966.789474,1023.10526 L454.736842,1023.10526 L454.736842,755 L268.105263,568.368421 L179.526316,568.368421 C177.094588,580.281405 166.037217,588.417908 153.940148,587.195856 C141.84308,585.973804 132.636413,575.790217 132.636413,563.631579 C132.636413,551.472941 141.84308,541.289354 153.940148,540.067302 C166.037217,538.84525 177.094588,546.981753 179.526316,558.894737 L271.894737,558.894737 L464.210526,751.210526 L464.210526,1013.63158 L966.789474,1013.63158 L966.789474,1013.63158 Z M255.315789,1023.10526 C252.884062,1035.01825 241.82669,1043.15475 229.729622,1041.9327 C217.632553,1040.71065 208.425887,1030.52706 208.425887,1018.36842 C208.425887,1006.20978 217.632553,996.026196 229.729622,994.804144 C241.82669,993.582092 252.884062,1001.7186 255.315789,1013.63158 L378.947368,1013.63158 L378.947368,792.942105 L230.163158,644.157895 L103.736842,644.157895 C101.305114,656.070878 90.247743,664.207382 78.1506744,662.98533 C66.0536058,661.763278 56.8469393,651.579691 56.8469393,639.421053 C56.8469393,627.262415 66.0536058,617.078827 78.1506744,615.856775 C90.247743,614.634723 101.305114,622.771227 103.736842,634.684211 L234.047368,634.684211 L388.421053,789.057895 L388.421053,1023.10526 L255.315789,1023.10526 L255.315789,1023.10526 Z M161.052632,-10.4736842 L161.052632,-2.84736842 L44.5736842,113.631579 L0,113.631579 L0,104.157895 L40.6894737,104.157895 L151.578947,-6.73157895 L151.578947,-199 L161.052632,-199 L161.052632,-10.4736842 Z M9.47368421,1222.52632 C18.7782098,1224.42392 26.0497669,1231.69547 27.9473684,1241 L18.1421053,1241 C16.8873844,1237.44354 14.2704175,1234.5317 10.8675969,1232.90581 C7.46477625,1231.27992 3.55521428,1231.07334 7.10542736e-15,1232.33158 L7.10542736e-15,1013.63158 L85.2631579,1013.63158 L85.2631579,1241 L75.7894737,1241 L75.7894737,1023.10526 L9.47368421,1023.10526 L9.47368421,1222.52632 Z M161.052632,942.578947 L161.052632,1241 L151.578947,1241 L151.578947,947.315789 L0,947.315789 L0,937.842105 L161.052632,937.842105 L161.052632,942.578947 Z M80.5263158,-113.736842 L0,-113.736842 L0,-123.210526 L75.7894737,-123.210526 L75.7894737,-199 L85.2631579,-199 L85.2631579,-113.736842 L80.5263158,-113.736842 Z M1373.68421,-123.210526 L1440,-123.210526 L1440,-113.736842 L1364.21053,-113.736842 L1364.21053,-199 L1373.68421,-199 L1373.68421,-123.210526 Z M1222.10526,1169.94737 L1222.10526,1241 L1212.63158,1241 L1212.63158,1174.68421 L1146.31579,1174.68421 L1146.31579,1241 L1136.84211,1241 L1136.84211,1165.21053 L1222.10526,1165.21053 L1222.10526,1169.94737 Z M0,237.263158 C6.96420464,235.87686 14.1835391,237.675451 19.6833699,242.16698 C25.1832007,246.658508 28.3879494,253.372919 28.4210531,260.473684 C28.4225044,267.58659 25.2270989,274.323541 19.7179245,278.8227 C14.2087502,283.321859 6.96919626,285.106792 0,283.684211 L0,273.878947 C5.88699232,275.949879 12.4362084,273.937654 16.1447992,268.918512 C19.8533901,263.89937 19.8533901,257.047999 16.1447992,252.028856 C12.4362084,247.009714 5.88699232,244.997489 0,247.068421 L0,237.263158 L0,237.263158 Z M378.947368,1089.42105 L388.421053,1089.42105 L388.421053,1241 L378.947368,1241 L378.947368,1089.42105 Z M558.473684,1241 L548.668421,1241 C546.667252,1235.31132 541.29356,1231.50519 535.263158,1231.50519 C529.232756,1231.50519 523.859064,1235.31132 521.857895,1241 L512.052632,1241 C514.29407,1229.96162 523.999508,1222.02889 535.263158,1222.02889 C546.526808,1222.02889 556.232246,1229.96162 558.473684,1241 L558.473684,1241 Z M27.9473684,-199 C29.4898112,-191.215771 27.047483,-183.175114 21.4361843,-177.563816 C15.8248856,-171.952517 7.78422864,-169.510189 0,-171.052632 L0,-180.857895 C5.16471288,-179.026889 10.9220199,-180.328549 14.7967355,-184.203264 C18.6714511,-188.07798 19.9731113,-193.835287 18.1421053,-199 L27.9473684,-199 Z M1421.52632,-199 L1431.33158,-199 C1430.07334,-195.444786 1430.27992,-191.535224 1431.90581,-188.132403 C1433.5317,-184.729582 1436.44354,-182.112616 1440,-180.857895 L1440,-171.052632 C1433.84356,-172.307766 1428.43813,-175.957739 1424.97343,-181.199208 C1421.50873,-186.440678 1420.26872,-192.84406 1421.52632,-199 L1421.52632,-199 Z M1440,1222.52632 L1440,1232.33158 C1435.94868,1233.76206 1432.76206,1236.94868 1431.33158,1241 L1421.52632,1241 C1423.42392,1231.69547 1430.69547,1224.42392 1440,1222.52632 L1440,1222.52632 Z M459.473684,274.684211 C464.550616,274.684211 469.241895,271.9757 471.780362,267.578948 C474.318828,263.182195 474.318828,257.765173 471.780362,253.368421 C469.241895,248.971669 464.550616,246.263158 459.473684,246.263158 C451.625427,246.263158 445.263158,252.625427 445.263158,260.473684 C445.263158,268.321941 451.625427,274.684211 459.473684,274.684211 L459.473684,274.684211 Z M459.473684,198.894737 C467.321941,198.894737 473.684211,192.532467 473.684211,184.684211 C473.684211,176.835954 467.321941,170.473684 459.473684,170.473684 C451.625427,170.473684 445.263158,176.835954 445.263158,184.684211 C445.263158,192.532467 451.625427,198.894737 459.473684,198.894737 L459.473684,198.894737 Z M535.263158,274.684211 C540.34009,274.684211 545.031369,271.9757 547.569835,267.578948 C550.108302,263.182195 550.108302,257.765173 547.569835,253.368421 C545.031369,248.971669 540.34009,246.263158 535.263158,246.263158 C527.414901,246.263158 521.052632,252.625427 521.052632,260.473684 C521.052632,268.321941 527.414901,274.684211 535.263158,274.684211 L535.263158,274.684211 Z M611.052632,350.473684 C618.900889,350.473684 625.263158,344.111415 625.263158,336.263158 C625.263158,328.414901 618.900889,322.052632 611.052632,322.052632 C603.204375,322.052632 596.842105,328.414901 596.842105,336.263158 C596.842105,344.111415 603.204375,350.473684 611.052632,350.473684 Z M611.052632,426.263158 C618.900889,426.263158 625.263158,419.900889 625.263158,412.052632 C625.263158,404.204375 618.900889,397.842105 611.052632,397.842105 C603.204375,397.842105 596.842105,404.204375 596.842105,412.052632 C596.842105,419.900889 603.204375,426.263158 611.052632,426.263158 Z M383.684211,577.842105 C391.532467,577.842105 397.894737,571.479836 397.894737,563.631579 C397.894737,555.783322 391.532467,549.421053 383.684211,549.421053 C375.835954,549.421053 369.473684,555.783322 369.473684,563.631579 C369.473684,571.479836 375.835954,577.842105 383.684211,577.842105 Z M459.473684,653.631579 C467.321941,653.631579 473.684211,647.26931 473.684211,639.421053 C473.684211,631.572796 467.321941,625.210526 459.473684,625.210526 C451.625427,625.210526 445.263158,631.572796 445.263158,639.421053 C445.263158,647.26931 451.625427,653.631579 459.473684,653.631579 L459.473684,653.631579 Z M611.052632,881 C618.900889,881 625.263158,874.637731 625.263158,866.789474 C625.263158,858.941217 618.900889,852.578947 611.052632,852.578947 C603.204375,852.578947 596.842105,858.941217 596.842105,866.789474 C596.842105,874.637731 603.204375,881 611.052632,881 Z M535.263158,956.789474 C543.111415,956.789474 549.473684,950.427204 549.473684,942.578947 C549.473684,934.73069 543.111415,928.368421 535.263158,928.368421 C527.414901,928.368421 521.052632,934.73069 521.052632,942.578947 C521.052632,950.427204 527.414901,956.789474 535.263158,956.789474 Z M686.842105,881 C694.690362,881 701.052632,874.637731 701.052632,866.789474 C701.052632,858.941217 694.690362,852.578947 686.842105,852.578947 C678.993848,852.578947 672.631579,858.941217 672.631579,866.789474 C672.631579,874.637731 678.993848,881 686.842105,881 Z M686.842105,729.421053 C694.690362,729.421053 701.052632,723.058783 701.052632,715.210526 C701.052632,707.362269 694.690362,701 686.842105,701 C678.993848,701 672.631579,707.362269 672.631579,715.210526 C672.631579,723.058783 678.993848,729.421053 686.842105,729.421053 Z M762.631579,881 C770.479836,881 776.842105,874.637731 776.842105,866.789474 C776.842105,858.941217 770.479836,852.578947 762.631579,852.578947 C754.783322,852.578947 748.421053,858.941217 748.421053,866.789474 C748.421053,874.637731 754.783322,881 762.631579,881 Z M914.210526,956.789474 C922.058783,956.789474 928.421053,950.427204 928.421053,942.578947 C928.421053,934.73069 922.058783,928.368421 914.210526,928.368421 C906.362269,928.368421 900,934.73069 900,942.578947 C900,950.427204 906.362269,956.789474 914.210526,956.789474 Z M914.210526,881 C922.058783,881 928.421053,874.637731 928.421053,866.789474 C928.421053,858.941217 922.058783,852.578947 914.210526,852.578947 C906.362269,852.578947 900,858.941217 900,866.789474 C900,874.637731 906.362269,881 914.210526,881 Z M838.421053,577.842105 C846.26931,577.842105 852.631579,571.479836 852.631579,563.631579 C852.631579,555.783322 846.26931,549.421053 838.421053,549.421053 C830.572796,549.421053 824.210526,555.783322 824.210526,563.631579 C824.210526,571.479836 830.572796,577.842105 838.421053,577.842105 Z M914.210526,577.842105 C922.058783,577.842105 928.421053,571.479836 928.421053,563.631579 C928.421053,555.783322 922.058783,549.421053 914.210526,549.421053 C906.362269,549.421053 900,555.783322 900,563.631579 C900,571.479836 906.362269,577.842105 914.210526,577.842105 Z M990,1032.57895 C997.848257,1032.57895 1004.21053,1026.21668 1004.21053,1018.36842 C1004.21053,1010.52016 997.848257,1004.15789 990,1004.15789 C982.151743,1004.15789 975.789474,1010.52016 975.789474,1018.36842 C975.789474,1026.21668 982.151743,1032.57895 990,1032.57895 L990,1032.57895 Z M990,1108.36842 C997.848257,1108.36842 1004.21053,1102.00615 1004.21053,1094.15789 C1004.21053,1086.30964 997.848257,1079.94737 990,1079.94737 C982.151743,1079.94737 975.789474,1086.30964 975.789474,1094.15789 C975.789474,1102.00615 982.151743,1108.36842 990,1108.36842 L990,1108.36842 Z M1065.78947,1184.15789 C1073.63773,1184.15789 1080,1177.79563 1080,1169.94737 C1080,1162.09911 1073.63773,1155.73684 1065.78947,1155.73684 C1057.94122,1155.73684 1051.57895,1162.09911 1051.57895,1169.94737 C1051.57895,1177.79563 1057.94122,1184.15789 1065.78947,1184.15789 Z M1141.57895,502.052632 C1149.4272,502.052632 1155.78947,495.690362 1155.78947,487.842105 C1155.78947,479.993848 1149.4272,473.631579 1141.57895,473.631579 C1133.73069,473.631579 1127.36842,479.993848 1127.36842,487.842105 C1127.36842,495.690362 1133.73069,502.052632 1141.57895,502.052632 Z M1141.57895,653.631579 C1149.4272,653.631579 1155.78947,647.26931 1155.78947,639.421053 C1155.78947,631.572796 1149.4272,625.210526 1141.57895,625.210526 C1133.73069,625.210526 1127.36842,631.572796 1127.36842,639.421053 C1127.36842,647.26931 1133.73069,653.631579 1141.57895,653.631579 Z M1217.36842,502.052632 C1225.21668,502.052632 1231.57895,495.690362 1231.57895,487.842105 C1231.57895,479.993848 1225.21668,473.631579 1217.36842,473.631579 C1209.52016,473.631579 1203.15789,479.993848 1203.15789,487.842105 C1203.15789,495.690362 1209.52016,502.052632 1217.36842,502.052632 Z M1293.15789,426.263158 C1301.00615,426.263158 1307.36842,419.900889 1307.36842,412.052632 C1307.36842,404.204375 1301.00615,397.842105 1293.15789,397.842105 C1285.30964,397.842105 1278.94737,404.204375 1278.94737,412.052632 C1278.94737,419.900889 1285.30964,426.263158 1293.15789,426.263158 Z M838.421053,426.263158 C846.26931,426.263158 852.631579,419.900889 852.631579,412.052632 C852.631579,404.204375 846.26931,397.842105 838.421053,397.842105 C830.572796,397.842105 824.210526,404.204375 824.210526,412.052632 C824.210526,419.900889 830.572796,426.263158 838.421053,426.263158 Z M838.421053,502.052632 C846.26931,502.052632 852.631579,495.690362 852.631579,487.842105 C852.631579,479.993848 846.26931,473.631579 838.421053,473.631579 C830.572796,473.631579 824.210526,479.993848 824.210526,487.842105 C824.210526,495.690362 830.572796,502.052632 838.421053,502.052632 Z M914.210526,350.473684 C922.058783,350.473684 928.421053,344.111415 928.421053,336.263158 C928.421053,328.414901 922.058783,322.052632 914.210526,322.052632 C906.362269,322.052632 900,328.414901 900,336.263158 C900,344.111415 906.362269,350.473684 914.210526,350.473684 Z M1368.94737,350.473684 C1376.79563,350.473684 1383.15789,344.111415 1383.15789,336.263158 C1383.15789,328.414901 1376.79563,322.052632 1368.94737,322.052632 C1361.09911,322.052632 1354.73684,328.414901 1354.73684,336.263158 C1354.73684,344.111415 1361.09911,350.473684 1368.94737,350.473684 Z M1293.15789,47.3157895 C1301.00615,47.3157895 1307.36842,40.9535201 1307.36842,33.1052632 C1307.36842,25.2570062 1301.00615,18.8947368 1293.15789,18.8947368 C1285.30964,18.8947368 1278.94737,25.2570062 1278.94737,33.1052632 C1278.94737,40.9535201 1285.30964,47.3157895 1293.15789,47.3157895 Z M1368.94737,-28.4736842 C1376.79563,-28.4736842 1383.15789,-34.8359536 1383.15789,-42.6842105 C1383.15789,-50.5324675 1376.79563,-56.8947368 1368.94737,-56.8947368 C1361.09911,-56.8947368 1354.73684,-50.5324675 1354.73684,-42.6842105 C1354.73684,-34.8359536 1361.09911,-28.4736842 1368.94737,-28.4736842 Z M1217.36842,-28.4736842 C1225.21668,-28.4736842 1231.57895,-34.8359536 1231.57895,-42.6842105 C1231.57895,-50.5324675 1225.21668,-56.8947368 1217.36842,-56.8947368 C1209.52016,-56.8947368 1203.15789,-50.5324675 1203.15789,-42.6842105 C1203.15789,-34.8359536 1209.52016,-28.4736842 1217.36842,-28.4736842 Z M1217.36842,-104.263158 C1225.21668,-104.263158 1231.57895,-110.625427 1231.57895,-118.473684 C1231.57895,-126.321941 1225.21668,-132.684211 1217.36842,-132.684211 C1209.52016,-132.684211 1203.15789,-126.321941 1203.15789,-118.473684 C1203.15789,-110.625427 1209.52016,-104.263158 1217.36842,-104.263158 Z M1141.57895,-104.263158 C1149.4272,-104.263158 1155.78947,-110.625427 1155.78947,-118.473684 C1155.78947,-126.321941 1149.4272,-132.684211 1141.57895,-132.684211 C1133.73069,-132.684211 1127.36842,-126.321941 1127.36842,-118.473684 C1127.36842,-110.625427 1133.73069,-104.263158 1141.57895,-104.263158 L1141.57895,-104.263158 Z M1065.78947,-104.263158 C1073.63773,-104.263158 1080,-110.625427 1080,-118.473684 C1080,-126.321941 1073.63773,-132.684211 1065.78947,-132.684211 C1057.94122,-132.684211 1051.57895,-126.321941 1051.57895,-118.473684 C1051.57895,-110.625427 1057.94122,-104.263158 1065.78947,-104.263158 L1065.78947,-104.263158 Z M990,-104.263158 C997.848257,-104.263158 1004.21053,-110.625427 1004.21053,-118.473684 C1004.21053,-126.321941 997.848257,-132.684211 990,-132.684211 C982.151743,-132.684211 975.789474,-126.321941 975.789474,-118.473684 C975.789474,-110.625427 982.151743,-104.263158 990,-104.263158 Z M232.105263,-28.4736842 C239.95352,-28.4736842 246.315789,-34.8359536 246.315789,-42.6842105 C246.315789,-50.5324675 239.95352,-56.8947368 232.105263,-56.8947368 C224.257006,-56.8947368 217.894737,-50.5324675 217.894737,-42.6842105 C217.894737,-34.8359536 224.257006,-28.4736842 232.105263,-28.4736842 Z M80.5263158,-28.4736842 C88.3745728,-28.4736842 94.7368421,-34.8359536 94.7368421,-42.6842105 C94.7368421,-50.5324675 88.3745728,-56.8947368 80.5263158,-56.8947368 C72.6780588,-56.8947368 66.3157895,-50.5324675 66.3157895,-42.6842105 C66.3157895,-34.8359536 72.6780588,-28.4736842 80.5263158,-28.4736842 Z M232.105263,47.3157895 C239.95352,47.3157895 246.315789,40.9535201 246.315789,33.1052632 C246.315789,25.2570062 239.95352,18.8947368 232.105263,18.8947368 C224.257006,18.8947368 217.894737,25.2570062 217.894737,33.1052632 C217.894737,40.9535201 224.257006,47.3157895 232.105263,47.3157895 Z M156.315789,123.105263 C164.164046,123.105263 170.526316,116.742994 170.526316,108.894737 C170.526316,101.04648 164.164046,94.6842105 156.315789,94.6842105 C148.467533,94.6842105 142.105263,101.04648 142.105263,108.894737 C142.105263,116.742994 148.467533,123.105263 156.315789,123.105263 L156.315789,123.105263 Z M232.105263,-104.263158 C239.95352,-104.263158 246.315789,-110.625427 246.315789,-118.473684 C246.315789,-126.321941 239.95352,-132.684211 232.105263,-132.684211 C224.257006,-132.684211 217.894737,-126.321941 217.894737,-118.473684 C217.894737,-110.625427 224.257006,-104.263158 232.105263,-104.263158 Z M232.105263,1032.57895 C239.95352,1032.57895 246.315789,1026.21668 246.315789,1018.36842 C246.315789,1010.52016 239.95352,1004.15789 232.105263,1004.15789 C224.257006,1004.15789 217.894737,1010.52016 217.894737,1018.36842 C217.894737,1026.21668 224.257006,1032.57895 232.105263,1032.57895 L232.105263,1032.57895 Z M307.894737,1184.15789 C315.742994,1184.15789 322.105263,1177.79563 322.105263,1169.94737 C322.105263,1162.09911 315.742994,1155.73684 307.894737,1155.73684 C300.04648,1155.73684 293.684211,1162.09911 293.684211,1169.94737 C293.684211,1177.79563 300.04648,1184.15789 307.894737,1184.15789 Z M232.105263,881 C239.95352,881 246.315789,874.637731 246.315789,866.789474 C246.315789,858.941217 239.95352,852.578947 232.105263,852.578947 C224.257006,852.578947 217.894737,858.941217 217.894737,866.789474 C217.894737,874.637731 224.257006,881 232.105263,881 Z M232.105263,956.789474 C239.95352,956.789474 246.315789,950.427204 246.315789,942.578947 C246.315789,934.73069 239.95352,928.368421 232.105263,928.368421 C224.257006,928.368421 217.894737,934.73069 217.894737,942.578947 C217.894737,950.427204 224.257006,956.789474 232.105263,956.789474 Z M156.315789,805.210526 C164.164046,805.210526 170.526316,798.848257 170.526316,791 C170.526316,783.151743 164.164046,776.789474 156.315789,776.789474 C148.467533,776.789474 142.105263,783.151743 142.105263,791 C142.105263,798.848257 148.467533,805.210526 156.315789,805.210526 L156.315789,805.210526 Z M535.263158,-28.4736842 C543.111415,-28.4736842 549.473684,-34.8359536 549.473684,-42.6842105 C549.473684,-50.5324675 543.111415,-56.8947368 535.263158,-56.8947368 C527.414901,-56.8947368 521.052632,-50.5324675 521.052632,-42.6842105 C521.052632,-34.8359536 527.414901,-28.4736842 535.263158,-28.4736842 Z M611.052632,-28.4736842 C618.900889,-28.4736842 625.263158,-34.8359536 625.263158,-42.6842105 C625.263158,-50.5324675 618.900889,-56.8947368 611.052632,-56.8947368 C603.204375,-56.8947368 596.842105,-50.5324675 596.842105,-42.6842105 C596.842105,-34.8359536 603.204375,-28.4736842 611.052632,-28.4736842 Z M535.263158,-104.263158 C543.111415,-104.263158 549.473684,-110.625427 549.473684,-118.473684 C549.473684,-126.321941 543.111415,-132.684211 535.263158,-132.684211 C527.414901,-132.684211 521.052632,-126.321941 521.052632,-118.473684 C521.052632,-110.625427 527.414901,-104.263158 535.263158,-104.263158 Z M686.842105,123.105263 C694.690362,123.105263 701.052632,116.742994 701.052632,108.894737 C701.052632,101.04648 694.690362,94.6842105 686.842105,94.6842105 C678.993848,94.6842105 672.631579,101.04648 672.631579,108.894737 C672.631579,116.742994 678.993848,123.105263 686.842105,123.105263 Z M762.631579,47.3157895 C770.479836,47.3157895 776.842105,40.9535201 776.842105,33.1052632 C776.842105,25.2570062 770.479836,18.8947368 762.631579,18.8947368 C754.783322,18.8947368 748.421053,25.2570062 748.421053,33.1052632 C748.421053,40.9535201 754.783322,47.3157895 762.631579,47.3157895 Z M762.631579,-104.263158 C770.479836,-104.263158 776.842105,-110.625427 776.842105,-118.473684 C776.842105,-126.321941 770.479836,-132.684211 762.631579,-132.684211 C754.783322,-132.684211 748.421053,-126.321941 748.421053,-118.473684 C748.421053,-110.625427 754.783322,-104.263158 762.631579,-104.263158 L762.631579,-104.263158 Z M1293.15789,729.421053 C1301.00615,729.421053 1307.36842,723.058783 1307.36842,715.210526 C1307.36842,707.362269 1301.00615,701 1293.15789,701 C1285.30964,701 1278.94737,707.362269 1278.94737,715.210526 C1278.94737,723.058783 1285.30964,729.421053 1293.15789,729.421053 Z M1217.36842,805.210526 C1225.21668,805.210526 1231.57895,798.848257 1231.57895,791 C1231.57895,783.151743 1225.21668,776.789474 1217.36842,776.789474 C1209.52016,776.789474 1203.15789,783.151743 1203.15789,791 C1203.15789,798.848257 1209.52016,805.210526 1217.36842,805.210526 L1217.36842,805.210526 Z M1217.36842,881 C1225.21668,881 1231.57895,874.637731 1231.57895,866.789474 C1231.57895,858.941217 1225.21668,852.578947 1217.36842,852.578947 C1209.52016,852.578947 1203.15789,858.941217 1203.15789,866.789474 C1203.15789,874.637731 1209.52016,881 1217.36842,881 Z M1217.36842,956.789474 C1225.21668,956.789474 1231.57895,950.427204 1231.57895,942.578947 C1231.57895,934.73069 1225.21668,928.368421 1217.36842,928.368421 C1209.52016,928.368421 1203.15789,934.73069 1203.15789,942.578947 C1203.15789,950.427204 1209.52016,956.789474 1217.36842,956.789474 Z M80.5263158,653.631579 C88.3745728,653.631579 94.7368421,647.26931 94.7368421,639.421053 C94.7368421,631.572796 88.3745728,625.210526 80.5263158,625.210526 C72.6780588,625.210526 66.3157895,631.572796 66.3157895,639.421053 C66.3157895,647.26931 72.6780588,653.631579 80.5263158,653.631579 Z M80.5263158,729.421053 C88.3745728,729.421053 94.7368421,723.058783 94.7368421,715.210526 C94.7368421,707.362269 88.3745728,701 80.5263158,701 C72.6780588,701 66.3157895,707.362269 66.3157895,715.210526 C66.3157895,723.058783 72.6780588,729.421053 80.5263158,729.421053 Z M80.5263158,577.842105 C88.3745728,577.842105 94.7368421,571.479836 94.7368421,563.631579 C94.7368421,555.783322 88.3745728,549.421053 80.5263158,549.421053 C72.6780588,549.421053 66.3157895,555.783322 66.3157895,563.631579 C66.3157895,571.479836 72.6780588,577.842105 80.5263158,577.842105 Z M156.315789,577.842105 C164.164046,577.842105 170.526316,571.479836 170.526316,563.631579 C170.526316,555.783322 164.164046,549.421053 156.315789,549.421053 C148.467533,549.421053 142.105263,555.783322 142.105263,563.631579 C142.105263,571.479836 148.467533,577.842105 156.315789,577.842105 Z M80.5263158,198.894737 C88.3745728,198.894737 94.7368421,192.532467 94.7368421,184.684211 C94.7368421,176.835954 88.3745728,170.473684 80.5263158,170.473684 C72.6780588,170.473684 66.3157895,176.835954 66.3157895,184.684211 C66.3157895,192.532467 72.6780588,198.894737 80.5263158,198.894737 Z M232.105263,502.052632 C239.95352,502.052632 246.315789,495.690362 246.315789,487.842105 C246.315789,479.993848 239.95352,473.631579 232.105263,473.631579 C224.257006,473.631579 217.894737,479.993848 217.894737,487.842105 C217.894737,495.690362 224.257006,502.052632 232.105263,502.052632 Z M307.894737,426.263158 C315.742994,426.263158 322.105263,419.900889 322.105263,412.052632 C322.105263,404.204375 315.742994,397.842105 307.894737,397.842105 C300.04648,397.842105 293.684211,404.204375 293.684211,412.052632 C293.684211,419.900889 300.04648,426.263158 307.894737,426.263158 Z" id="circuit-board"></path>
            </g>
        </g>
    </g>
</svg>